<svg width="28" height="23" viewBox="0 0 28 23" fill="none" xmlns="http://www.w3.org/2000/svg">
<path d="M13.8398 11.313V21.63M23.6246 18.6338C24.7623 18.0243 25.6611 17.0598 26.1791 15.8925C26.697 14.7253 26.8047 13.4217 26.4851 12.1877C26.1654 10.9536 25.4367 9.85927 24.4139 9.0774C23.3911 8.29553 22.1325 7.87064 20.8367 7.8698H19.3669C19.0138 6.52772 18.3557 5.28177 17.4421 4.2256C16.5285 3.16944 15.3831 2.33055 14.0921 1.77201C12.8011 1.21347 11.398 0.949809 9.98838 1.00085C8.57875 1.05189 7.19923 1.4163 5.95354 2.06669C4.70785 2.71708 3.6284 3.63652 2.79635 4.75588C1.9643 5.87525 1.4013 7.16542 1.14967 8.52939C0.898049 9.89336 0.964348 11.2956 1.34359 12.6308C1.72282 13.966 2.40513 15.1993 3.33921 16.238M18.5039 15.8985L13.8379 11.3132L9.17189 15.8985" stroke="#00B6DE" stroke-width="2" stroke-linecap="round" stroke-linejoin="round"/>
</svg>
