<svg width="16" height="21" viewBox="0 0 16 21" fill="none" xmlns="http://www.w3.org/2000/svg">
<path d="M15.75 18.375C15.75 19.0712 15.4734 19.7389 14.9812 20.2312C14.4889 20.7234 13.8212 21 13.125 21H2.625C1.92881 21 1.26113 20.7234 0.768845 20.2312C0.276562 19.7389 0 19.0712 0 18.375V2.625C0 1.92881 0.276562 1.26113 0.768845 0.768845C1.26113 0.276562 1.92881 0 2.625 0L9.84375 0L15.75 5.90625V18.375ZM2.625 1.3125C2.2769 1.3125 1.94306 1.45078 1.69692 1.69692C1.45078 1.94306 1.3125 2.2769 1.3125 2.625V15.75L4.2315 12.831C4.33495 12.7278 4.46987 12.6621 4.6149 12.6442C4.75993 12.6264 4.90676 12.6575 5.03212 12.7326L7.875 14.4375L10.7061 10.4738C10.7615 10.3963 10.8331 10.3318 10.9159 10.2848C10.9987 10.2378 11.0908 10.2093 11.1857 10.2015C11.2806 10.1936 11.3761 10.2065 11.4655 10.2392C11.5549 10.272 11.6362 10.3238 11.7036 10.3911L14.4375 13.125V5.90625H11.8125C11.2904 5.90625 10.7896 5.69883 10.4204 5.32962C10.0512 4.9604 9.84375 4.45964 9.84375 3.9375V1.3125H2.625Z" fill="#00B6DE"/>
</svg>
