<svg width="20" height="20" viewBox="0 0 20 20" fill="none" xmlns="http://www.w3.org/2000/svg">
<path d="M0 2.14284C0 1.57452 0.225765 1.02948 0.627628 0.627613C1.02949 0.225749 1.57454 -1.52588e-05 2.14286 -1.52588e-05H6.42857C6.99689 -1.52588e-05 7.54194 0.225749 7.9438 0.627613C8.34566 1.02948 8.57143 1.57452 8.57143 2.14284V6.42856C8.57143 6.99688 8.34566 7.54192 7.9438 7.94379C7.54194 8.34565 6.99689 8.57141 6.42857 8.57141H2.14286C1.57454 8.57141 1.02949 8.34565 0.627628 7.94379C0.225765 7.54192 0 6.99688 0 6.42856V2.14284ZM11.4286 2.14284C11.4286 1.57452 11.6543 1.02948 12.0562 0.627613C12.4581 0.225749 13.0031 -1.52588e-05 13.5714 -1.52588e-05H17.8571C18.4255 -1.52588e-05 18.9705 0.225749 19.3724 0.627613C19.7742 1.02948 20 1.57452 20 2.14284V6.42856C20 6.99688 19.7742 7.54192 19.3724 7.94379C18.9705 8.34565 18.4255 8.57141 17.8571 8.57141H13.5714C13.0031 8.57141 12.4581 8.34565 12.0562 7.94379C11.6543 7.54192 11.4286 6.99688 11.4286 6.42856V2.14284ZM0 13.5714C0 13.0031 0.225765 12.458 0.627628 12.0562C1.02949 11.6543 1.57454 11.4286 2.14286 11.4286H6.42857C6.99689 11.4286 7.54194 11.6543 7.9438 12.0562C8.34566 12.458 8.57143 13.0031 8.57143 13.5714V17.8571C8.57143 18.4254 8.34566 18.9705 7.9438 19.3724C7.54194 19.7742 6.99689 20 6.42857 20H2.14286C1.57454 20 1.02949 19.7742 0.627628 19.3724C0.225765 18.9705 0 18.4254 0 17.8571V13.5714ZM11.4286 13.5714C11.4286 13.0031 11.6543 12.458 12.0562 12.0562C12.4581 11.6543 13.0031 11.4286 13.5714 11.4286H17.8571C18.4255 11.4286 18.9705 11.6543 19.3724 12.0562C19.7742 12.458 20 13.0031 20 13.5714V17.8571C20 18.4254 19.7742 18.9705 19.3724 19.3724C18.9705 19.7742 18.4255 20 17.8571 20H13.5714C13.0031 20 12.4581 19.7742 12.0562 19.3724C11.6543 18.9705 11.4286 18.4254 11.4286 17.8571V13.5714Z" fill="#AEAEAE"/>
</svg>
