<svg width="32" height="24" viewBox="0 0 32 24" fill="none" xmlns="http://www.w3.org/2000/svg">
<path opacity="0.587821" fill-rule="evenodd" clip-rule="evenodd" d="M6.66667 5.33333C6.66667 8.27885 9.05449 10.6667 12 10.6667C14.9455 10.6667 17.3333 8.27885 17.3333 5.33333C17.3333 2.38781 14.9455 -1.14441e-05 12 -1.14441e-05C9.05449 -1.14441e-05 6.66667 2.38781 6.66667 5.33333ZM20.0001 10.6667C20.0001 12.8758 21.7909 14.6667 24.0001 14.6667C26.2092 14.6667 28.0001 12.8758 28.0001 10.6667C28.0001 8.45751 26.2092 6.66665 24.0001 6.66665C21.7909 6.66665 20.0001 8.45751 20.0001 10.6667Z" fill="#8280FF"/>
<path fill-rule="evenodd" clip-rule="evenodd" d="M11.9778 13.3333C5.68256 13.3333 0.517679 16.5687 0.000868913 22.9323C-0.0272824 23.2789 0.635617 24 0.970004 24H22.9956C23.9972 24 24.0128 23.194 23.9972 22.9333C23.6065 16.3909 18.3616 13.3333 11.9778 13.3333ZM31.2747 24H26.1334C26.1334 20.9987 25.1418 18.2291 23.4683 16.0008C28.0103 16.0504 31.719 18.3468 31.9981 23.2C32.0093 23.3955 31.9981 24 31.2747 24Z" fill="#8280FF"/>
</svg>
