<svg width="20" height="17" viewBox="0 0 20 17" fill="none" xmlns="http://www.w3.org/2000/svg">
<path d="M19.0323 0C19.5685 0 20 0.433198 20 0.97166V2.91498C20 3.45344 19.5685 3.88664 19.0323 3.88664H17.0968C16.5605 3.88664 16.129 3.45344 16.129 2.91498V0.97166C16.129 0.433198 16.5605 0 17.0968 0H19.0323ZM12.9032 0.647773C13.6169 0.647773 14.1935 1.22672 14.1935 1.94332C14.1935 2.65992 13.6169 3.23887 12.9032 3.23887H1.29032C0.576614 3.23887 0 2.65992 0 1.94332C0 1.22672 0.576614 0.647773 1.29032 0.647773H12.9032ZM12.9032 7.12551C13.6169 7.12551 14.1935 7.70445 14.1935 8.42105C14.1935 9.13765 13.6169 9.7166 12.9032 9.7166H1.29032C0.576614 9.7166 0 9.13765 0 8.42105C0 7.70445 0.576614 7.12551 1.29032 7.12551H12.9032ZM12.9032 13.6032C13.6169 13.6032 14.1935 14.1822 14.1935 14.8988C14.1935 15.6154 13.6169 16.1943 12.9032 16.1943H1.29032C0.576614 16.1943 0 15.6154 0 14.8988C0 14.1822 0.576614 13.6032 1.29032 13.6032H12.9032ZM20 7.44939V9.39271C20 9.93117 19.5685 10.3644 19.0323 10.3644H17.0968C16.5605 10.3644 16.129 9.93117 16.129 9.39271V7.44939C16.129 6.91093 16.5605 6.47773 17.0968 6.47773H19.0323C19.5685 6.47773 20 6.91093 20 7.44939ZM19.0323 12.9555C19.5685 12.9555 20 13.3887 20 13.9271V15.8704C20 16.4089 19.5685 16.8421 19.0323 16.8421H17.0968C16.5605 16.8421 16.129 16.4089 16.129 15.8704V13.9271C16.129 13.3887 16.5605 12.9555 17.0968 12.9555H19.0323Z" fill="#018AA9"/>
</svg>
