<svg width="30" height="34" viewBox="0 0 30 34" fill="none" xmlns="http://www.w3.org/2000/svg">
<path fill-rule="evenodd" clip-rule="evenodd" d="M30 11.3165L17.0995 18.7646C16.9606 18.8448 16.8149 18.9027 16.6667 18.9395V33.3847L29.0799 26.0385C29.6502 25.701 30 25.0876 30 24.4249V11.3165ZM0 11.1185V24.4249C0 25.0876 0.349785 25.701 0.920067 26.0385L13.3333 33.3847V18.8129C13.3031 18.7978 13.2731 18.7817 13.2434 18.7646L0 11.1185Z" fill="#FEC53D"/>
<path opacity="0.499209" fill-rule="evenodd" clip-rule="evenodd" d="M29.5948 7.70142C29.4372 7.50244 29.2383 7.33426 29.0064 7.21076L15.8814 0.2201C15.3304 -0.0733665 14.6695 -0.0733665 14.1186 0.2201L0.993559 7.21076C0.814812 7.30596 0.65567 7.42771 0.519943 7.56966L14.9101 15.8778C15.0047 15.9325 15.092 15.995 15.1715 16.064C15.251 15.995 15.3382 15.9325 15.4328 15.8778L29.5948 7.70142Z" fill="#FEC53D"/>
</svg>
