<svg width="28" height="28" viewBox="0 0 28 28" fill="none" xmlns="http://www.w3.org/2000/svg">
<path d="M3.11111 24.8889H26.4444C27.3036 24.8889 28 25.5853 28 26.4444C28 27.3036 27.3036 28 26.4444 28H1.55556C0.696446 28 0 27.3036 0 26.4444V1.55556C0 0.696446 0.696446 0 1.55556 0C2.41467 0 3.11111 0.696446 3.11111 1.55556V24.8889Z" fill="#4AD991"/>
<path opacity="0.5" d="M8.91256 18.175C8.32498 18.8018 7.34057 18.8335 6.71382 18.246C6.08707 17.6584 6.05531 16.674 6.64289 16.0472L12.4762 9.825C13.0445 9.21885 13.9888 9.16629 14.6208 9.70562L19.2248 13.6344L25.2235 6.03613C25.7558 5.36182 26.734 5.24675 27.4083 5.77909C28.0826 6.31143 28.1977 7.28961 27.6653 7.96391L20.6653 16.8306C20.1186 17.5231 19.1059 17.6227 18.4347 17.05L13.7306 13.0358L8.91256 18.175Z" fill="#4AD991"/>
</svg>
